<svg width="500" height="500" viewBox="0 0 500 500" fill="none" xmlns="http://www.w3.org/2000/svg">
<rect width="500" height="500" rx="250" fill="#6200EE"/>
<path d="M357.055 234.7H142.854C140.149 234.7 137.555 235.775 135.642 237.688C133.729 239.601 132.654 242.195 132.654 244.9V387.701H367.255V244.9C367.255 242.195 366.18 239.601 364.267 237.688C362.354 235.775 359.76 234.7 357.055 234.7Z" fill="#57A4FF"/>
<path d="M295.855 188.8C296.142 208.06 292.407 227.167 284.89 244.9C282.366 250.661 279.146 256.091 275.302 261.067C274.18 237.709 263.215 219.4 249.954 219.4C236.694 219.4 225.729 237.709 224.607 261.067C220.763 256.091 217.543 250.661 215.019 244.9C207.502 227.167 203.767 208.06 204.054 188.8C204.054 140.911 249.954 102.1 249.954 102.1C249.954 102.1 295.855 140.911 295.855 188.8Z" fill="#FF3051"/>
<path d="M367.255 244.9V387.701H346.855V244.9C346.846 242.198 345.769 239.608 343.858 237.697C341.947 235.786 339.357 234.708 336.655 234.7H357.055C359.757 234.708 362.347 235.786 364.258 237.697C366.169 239.608 367.246 242.198 367.255 244.9Z" fill="#2488FF"/>
<path d="M376.843 377.501L372.355 397.901H127.554L123.066 377.501H132.654H234.654V382.601H265.254V377.501H367.255H376.843Z" fill="#E0E0E2"/>
<path d="M376.843 377.501L372.355 397.901H351.955L356.443 377.501H376.843Z" fill="#C6C5CA"/>
<path d="M249.954 178.6C258.404 178.6 265.254 171.75 265.254 163.3C265.254 154.85 258.404 148 249.954 148C241.505 148 234.654 154.85 234.654 163.3C234.654 171.75 241.505 178.6 249.954 178.6Z" fill="#57A4FF"/>
<path d="M326.455 336.7H346.855V357.1H326.455V336.7Z" fill="#FFDE55"/>
<path d="M330.535 234.7L336.655 280.6H316.255L300.954 244.9H284.889C292.407 227.167 296.142 208.06 295.854 188.8L326.455 204.1L330.535 234.7Z" fill="#FFDE55"/>
<path d="M193.854 295.9H306.055V357.101H193.854V295.9Z" fill="#46F8FF"/>
<path d="M285.654 295.9H306.055V357.101H285.654V295.9Z" fill="#00E7F0"/>
<path d="M275.302 261.067C275.404 262.444 275.455 263.872 275.455 265.3C274.926 276.433 270.952 287.125 264.081 295.9C260.002 301.548 255.259 306.684 249.954 311.2C244.65 306.684 239.907 301.548 235.827 295.9C228.957 287.125 224.983 276.433 224.454 265.3C224.454 263.872 224.505 262.444 224.607 261.067C225.729 237.709 236.694 219.4 249.954 219.4C263.214 219.4 274.18 237.709 275.302 261.067Z" fill="#FF7956"/>
<path d="M215.019 244.9H198.954L183.654 280.6H163.254L169.374 234.7L173.454 204.1L204.054 188.8C203.767 208.06 207.502 227.167 215.019 244.9V244.9Z" fill="#FFDE55"/>
<path d="M153.054 336.7H173.454V357.1H153.054V336.7Z" fill="#FFDE55"/>
<path d="M249.954 102.1C246.38 105.232 242.976 108.552 239.754 112.045C253.218 126.529 275.454 155.497 275.454 188.8C275.561 204.174 273.273 219.47 268.671 234.139C272.746 242.551 275.005 251.726 275.301 261.067C279.146 256.091 282.366 250.661 284.889 244.9C292.407 227.167 296.142 208.06 295.854 188.8C295.854 140.911 249.954 102.1 249.954 102.1Z" fill="#CD2A00"/>
<path d="M336.655 280.6H316.255L306.055 204.1L295.497 198.847C295.752 195.583 295.854 192.217 295.854 188.8L326.455 204.1L336.655 280.6Z" fill="#FFCD00"/>
<path d="M275.454 265.3C275.454 290.647 249.954 311.2 249.954 311.2C248.173 309.71 246.47 308.127 244.854 306.457C252.3 299.011 265.254 283.354 265.254 265.3C265.254 263.872 265.203 262.444 265.101 261.067C264.132 240.769 255.717 224.296 244.854 220.318C246.486 219.71 248.213 219.399 249.954 219.4C263.214 219.4 274.179 237.709 275.301 261.067C275.403 262.444 275.454 263.872 275.454 265.3Z" fill="#FF5023"/>
<path d="M249.954 183.7C253.989 183.7 257.933 182.504 261.288 180.262C264.643 178.021 267.258 174.835 268.802 171.107C270.346 167.38 270.75 163.278 269.962 159.321C269.175 155.363 267.232 151.728 264.379 148.875C261.526 146.022 257.892 144.079 253.934 143.292C249.977 142.505 245.875 142.909 242.148 144.453C238.42 145.997 235.234 148.612 232.992 151.967C230.751 155.322 229.554 159.266 229.554 163.3C229.554 168.711 231.704 173.9 235.529 177.725C239.355 181.551 244.544 183.7 249.954 183.7ZM249.954 153.1C251.972 153.1 253.944 153.699 255.621 154.819C257.299 155.94 258.606 157.533 259.378 159.397C260.15 161.261 260.352 163.312 259.958 165.29C259.565 167.269 258.593 169.086 257.167 170.513C255.74 171.939 253.923 172.911 251.944 173.304C249.966 173.698 247.915 173.496 246.051 172.724C244.187 171.952 242.594 170.645 241.473 168.967C240.353 167.29 239.754 165.318 239.754 163.3C239.754 160.595 240.829 158.001 242.742 156.088C244.655 154.175 247.249 153.1 249.954 153.1V153.1Z" fill="black"/>
<path d="M244.854 234.7H255.054V244.9H244.854V234.7Z" fill="black"/>
<path d="M244.854 255.1H255.054V290.8H244.854V255.1Z" fill="black"/>
<path d="M380.77 374.288C380.295 373.702 379.697 373.23 379.018 372.904C378.339 372.577 377.596 372.405 376.843 372.401H372.355V234.7C372.355 233.348 371.817 232.051 370.861 231.094C369.904 230.138 368.607 229.6 367.255 229.6H335.023L331.504 203.437C331.402 202.614 331.097 201.828 330.616 201.152C330.135 200.475 329.494 199.929 328.75 199.561L300.75 185.536C298.863 137.443 255.156 99.8053 253.269 98.2243C252.346 97.4342 251.17 97 249.954 97C248.739 97 247.563 97.4342 246.639 98.2243C244.752 99.8053 201.045 137.443 199.158 185.536L171.159 199.561C170.415 199.929 169.774 200.475 169.293 201.152C168.812 201.828 168.507 202.614 168.405 203.437L164.886 229.6H132.654C131.302 229.6 130.005 230.138 129.048 231.094C128.092 232.051 127.554 233.348 127.554 234.7V372.401H123.066C122.313 372.405 121.57 372.577 120.891 372.904C120.212 373.23 119.614 373.702 119.139 374.288C118.657 374.878 118.314 375.57 118.137 376.312C117.96 377.054 117.954 377.827 118.119 378.572L122.556 398.972C122.802 400.114 123.432 401.138 124.342 401.871C125.252 402.604 126.386 403.003 127.554 403.001H372.355C373.523 403.003 374.657 402.604 375.567 401.871C376.477 401.138 377.107 400.114 377.353 398.972L381.79 378.572C381.955 377.827 381.948 377.054 381.772 376.312C381.595 375.57 381.252 374.878 380.77 374.288V374.288ZM300.7 196.909L321.763 207.466L330.841 275.5H319.621L305.646 242.911C305.256 241.99 304.603 241.203 303.769 240.65C302.934 240.097 301.956 239.801 300.955 239.8H292.438C297.313 225.995 300.097 211.538 300.7 196.909V196.909ZM249.954 109.036C260.205 118.777 290.754 151.162 290.754 188.8C291.142 208.716 286.936 228.454 278.463 246.481C274.026 227.458 263.112 214.3 249.954 214.3C236.796 214.3 225.882 227.458 221.445 246.481C212.973 228.454 208.767 208.716 209.154 188.8C209.154 151.213 239.703 118.828 249.954 109.036V109.036ZM249.954 304.315C243.477 298.144 229.554 282.742 229.554 265.3C229.554 241.279 240.315 224.5 249.954 224.5C259.593 224.5 270.354 241.279 270.354 265.3C270.354 282.742 256.431 298.144 249.954 304.315ZM300.955 301V352H198.954V301H233.277C237.266 306.177 241.778 310.928 246.741 315.178C247.655 315.905 248.787 316.301 249.954 316.301C251.122 316.301 252.254 315.905 253.167 315.178C258.131 310.928 262.643 306.177 266.631 301H300.955ZM178.146 207.466L199.209 196.909C199.811 211.538 202.596 225.995 207.471 239.8H198.954C197.953 239.801 196.975 240.097 196.14 240.65C195.306 241.203 194.653 241.99 194.262 242.911L180.288 275.5H169.068L178.146 207.466ZM137.754 239.8H163.56L158.205 279.937C158.111 280.657 158.171 281.389 158.382 282.084C158.593 282.779 158.95 283.421 159.429 283.966C159.903 284.515 160.491 284.955 161.151 285.254C161.812 285.554 162.529 285.706 163.254 285.7H183.654C184.656 285.7 185.634 285.404 186.469 284.851C187.303 284.298 187.956 283.511 188.346 282.589L202.32 250H211.755C213.927 254.413 216.505 258.613 219.456 262.546C219.405 263.464 219.354 264.382 219.354 265.3C219.563 274.271 222.036 283.043 226.545 290.8H193.854C192.502 290.8 191.205 291.338 190.248 292.294C189.292 293.251 188.754 294.548 188.754 295.9V357.1C188.754 358.453 189.292 359.75 190.248 360.707C191.205 361.663 192.502 362.2 193.854 362.2H306.055C307.407 362.2 308.704 361.663 309.661 360.707C310.617 359.75 311.155 358.453 311.155 357.1V295.9C311.155 294.548 310.617 293.251 309.661 292.294C308.704 291.338 307.407 290.8 306.055 290.8H273.363C277.873 283.043 280.346 274.271 280.554 265.3C280.554 264.382 280.503 263.464 280.452 262.546C283.404 258.613 285.982 254.413 288.154 250H297.589L311.563 282.589C311.953 283.511 312.606 284.298 313.44 284.851C314.275 285.404 315.253 285.7 316.255 285.7H336.655C337.38 285.706 338.097 285.554 338.758 285.254C339.418 284.955 340.006 284.515 340.48 283.966C340.959 283.421 341.316 282.779 341.527 282.084C341.738 281.389 341.798 280.657 341.704 279.937L336.349 239.8H362.155V372.401H265.254C263.902 372.401 262.605 372.938 261.648 373.894C260.692 374.851 260.154 376.148 260.154 377.501H239.754C239.754 376.148 239.217 374.851 238.261 373.894C237.304 372.938 236.007 372.401 234.654 372.401H137.754V239.8ZM368.275 392.801H131.634L129.441 382.601H229.554C229.554 383.953 230.092 385.25 231.048 386.207C232.005 387.163 233.302 387.701 234.654 387.701H265.254C266.607 387.701 267.904 387.163 268.861 386.207C269.817 385.25 270.354 383.953 270.354 382.601H370.468L368.275 392.801Z" fill="#23036A"/>
<path d="M321.355 311.2H351.955V321.4H321.355V311.2Z" fill="black"/>
<path d="M326.455 362.2H346.855C348.207 362.2 349.504 361.663 350.461 360.707C351.417 359.75 351.955 358.453 351.955 357.1V336.7C351.955 335.348 351.417 334.051 350.461 333.094C349.504 332.138 348.207 331.6 346.855 331.6H326.455C325.102 331.6 323.805 332.138 322.848 333.094C321.892 334.051 321.355 335.348 321.355 336.7V357.1C321.355 358.453 321.892 359.75 322.848 360.707C323.805 361.663 325.102 362.2 326.455 362.2ZM331.555 341.8H341.755V352H331.555V341.8Z" fill="black"/>
<path d="M147.954 311.2H178.554V321.4H147.954V311.2Z" fill="black"/>
<path d="M173.454 331.6H153.054C151.702 331.6 150.405 332.138 149.448 333.094C148.492 334.051 147.954 335.348 147.954 336.7V357.1C147.954 358.453 148.492 359.75 149.448 360.707C150.405 361.663 151.702 362.2 153.054 362.2H173.454C174.807 362.2 176.104 361.663 177.061 360.707C178.017 359.75 178.554 358.453 178.554 357.1V336.7C178.554 335.348 178.017 334.051 177.061 333.094C176.104 332.138 174.807 331.6 173.454 331.6ZM168.354 352H158.154V341.8H168.354V352Z" fill="black"/>
<path d="M311.155 127.6H321.355V117.4H331.555V107.2H321.355V97.0003H311.155V107.2H300.954V117.4H311.155V127.6Z" fill="#FFCD00"/>
<path d="M351.955 158.2H362.155V148H372.355V137.8H362.155V127.6H351.955V137.8H341.755V148H351.955V158.2Z" fill="#FFCD00"/>
<path d="M178.554 127.6H188.754V117.4H198.954V107.2H188.754V97.0003H178.554V107.2H168.354V117.4H178.554V127.6Z" fill="#FFCD00"/>
<path d="M137.754 158.2H147.954V148H158.154V137.8H147.954V127.6H137.754V137.8H127.554V148H137.754V158.2Z" fill="#FFCD00"/>
</svg>
