<svg width="265" height="308" viewBox="0 0 265 308" fill="none" xmlns="http://www.w3.org/2000/svg">
<path d="M240.065 138.665H25.17C22.4561 138.665 19.8532 139.743 17.9342 141.662C16.0151 143.581 14.937 146.184 14.937 148.898V292.162H250.298V148.898C250.298 146.184 249.22 143.581 247.301 141.662C245.382 139.743 242.779 138.665 240.065 138.665Z" fill="#79AEF5"/>
<path d="M178.666 92.6162C178.955 111.938 175.208 131.107 167.666 148.898C165.135 154.678 161.904 160.125 158.047 165.118C156.921 141.684 145.921 123.315 132.618 123.315C119.315 123.315 108.314 141.684 107.188 165.118C103.331 160.125 100.1 154.678 97.5692 148.898C90.0271 131.107 86.2804 111.938 86.5686 92.6162C86.5686 44.5718 132.618 5.63493 132.618 5.63493C132.618 5.63493 178.666 44.5718 178.666 92.6162Z" fill="#FF3051"/>
<path d="M250.298 148.898V292.162H229.832V148.898C229.824 146.187 228.743 143.589 226.826 141.671C224.908 139.754 222.31 138.673 219.599 138.665H240.065C242.777 138.673 245.375 139.754 247.292 141.671C249.209 143.589 250.29 146.187 250.298 148.898Z" fill="#5B98EB"/>
<path d="M259.917 281.928L255.415 302.395H9.8204L5.31784 281.928H14.9369H117.268V287.045H147.967V281.928H250.298H259.917Z" fill="#E0E0E2"/>
<path d="M259.917 281.928L255.415 302.395H234.948L239.451 281.928H259.917Z" fill="#C6C5CA"/>
<path d="M132.618 82.3832C141.095 82.3832 147.967 75.5109 147.967 67.0335C147.967 58.5562 141.095 51.6839 132.618 51.6839C124.14 51.6839 117.268 58.5562 117.268 67.0335C117.268 75.5109 124.14 82.3832 132.618 82.3832Z" fill="#79AEF5"/>
<path d="M209.366 240.996H229.832V261.462H209.366V240.996Z" fill="#FFDE55"/>
<path d="M213.459 138.665L219.599 184.714H199.133L183.783 148.898H167.666C175.208 131.107 178.955 111.938 178.666 92.6162L209.366 107.966L213.459 138.665Z" fill="#FFDE55"/>
<path d="M76.3355 200.064H188.9V261.462H76.3355V200.064Z" fill="#E6F4FF"/>
<path d="M168.433 200.064H188.9V261.462H168.433V200.064Z" fill="#BEE2FE"/>
<path d="M158.047 165.118C158.149 166.499 158.2 167.932 158.2 169.364C157.67 180.533 153.683 191.26 146.79 200.064C142.698 205.729 137.939 210.883 132.618 215.413C127.296 210.883 122.537 205.729 118.445 200.064C111.552 191.26 107.565 180.533 107.035 169.364C107.035 167.932 107.086 166.499 107.188 165.118C108.314 141.684 119.314 123.316 132.618 123.316C145.921 123.316 156.921 141.684 158.047 165.118Z" fill="#FF7956"/>
<path d="M97.5691 148.898H81.452L66.1024 184.714H45.6362L51.7761 138.665L55.8693 107.966L86.5685 92.6162C86.2803 111.938 90.027 131.107 97.5691 148.898V148.898Z" fill="#FFDE55"/>
<path d="M35.4031 240.996H55.8693V261.462H35.4031V240.996Z" fill="#FFDE55"/>
<path d="M132.618 5.63493C129.032 8.77679 125.616 12.1073 122.384 15.6122C135.892 30.1432 158.2 59.2052 158.2 92.6162C158.307 108.04 156.011 123.386 151.395 138.102C155.483 146.541 157.749 155.746 158.047 165.118C161.904 160.125 165.135 154.678 167.666 148.898C175.208 131.107 178.955 111.938 178.666 92.6162C178.666 44.5718 132.618 5.63493 132.618 5.63493Z" fill="#CD2A00"/>
<path d="M219.599 184.714H199.133L188.899 107.966L178.308 102.696C178.564 99.4212 178.666 96.0443 178.666 92.6162L209.366 107.966L219.599 184.714Z" fill="#FFCD00"/>
<path d="M158.2 169.364C158.2 194.794 132.618 215.413 132.618 215.413C130.83 213.918 129.122 212.329 127.501 210.655C134.971 203.185 147.967 187.477 147.967 169.364C147.967 167.932 147.916 166.499 147.814 165.118C146.842 144.754 138.399 128.227 127.501 124.237C129.138 123.626 130.871 123.314 132.618 123.316C145.921 123.316 156.921 141.684 158.047 165.118C158.149 166.499 158.2 167.932 158.2 169.364Z" fill="#FF5023"/>
<path d="M132.618 87.4997C136.665 87.4997 140.622 86.2994 143.988 84.0505C147.354 81.8017 149.977 78.6053 151.526 74.8656C153.075 71.1259 153.48 67.0108 152.691 63.0407C151.901 59.0707 149.952 55.424 147.089 52.5617C144.227 49.6995 140.58 47.7503 136.61 46.9606C132.64 46.1709 128.525 46.5762 124.785 48.1252C121.046 49.6742 117.849 52.2975 115.601 55.6631C113.352 59.0287 112.151 62.9857 112.151 67.0335C112.151 72.4615 114.308 77.6671 118.146 81.5053C121.984 85.3434 127.19 87.4997 132.618 87.4997ZM132.618 56.8004C134.641 56.8004 136.62 57.4006 138.303 58.525C139.986 59.6494 141.297 61.2476 142.072 63.1175C142.846 64.9873 143.049 67.0449 142.654 69.0299C142.259 71.0149 141.285 72.8383 139.853 74.2694C138.422 75.7005 136.599 76.6751 134.614 77.07C132.629 77.4648 130.571 77.2622 128.702 76.4877C126.832 75.7131 125.233 74.4015 124.109 72.7187C122.985 71.0359 122.384 69.0574 122.384 67.0335C122.384 64.3195 123.463 61.7167 125.382 59.7976C127.301 57.8785 129.904 56.8004 132.618 56.8004V56.8004Z" fill="black"/>
<path d="M127.501 138.665H137.734V148.898H127.501V138.665Z" fill="black"/>
<path d="M127.501 159.131H137.734V194.947H127.501V159.131Z" fill="black"/>
<path d="M263.857 278.705C263.381 278.118 262.781 277.644 262.099 277.317C261.418 276.989 260.673 276.817 259.917 276.812H255.415V138.665C255.415 137.308 254.876 136.007 253.916 135.047C252.956 134.088 251.655 133.549 250.298 133.549H217.961L214.431 107.301C214.329 106.474 214.023 105.686 213.54 105.008C213.058 104.329 212.415 103.781 211.668 103.412L183.578 89.3416C181.685 41.0926 137.836 3.3325 135.943 1.74637C135.016 0.953671 133.837 0.518066 132.618 0.518066C131.398 0.518066 130.219 0.953671 129.292 1.74637C127.399 3.3325 83.5498 41.0926 81.6567 89.3416L53.5669 103.412C52.8202 103.781 52.1768 104.329 51.6945 105.008C51.2122 105.686 50.9062 106.474 50.8039 107.301L47.2735 133.549H14.9369C13.58 133.549 12.2785 134.088 11.319 135.047C10.3595 136.007 9.8204 137.308 9.8204 138.665V276.812H5.31784C4.5621 276.817 3.81684 276.989 3.13564 277.317C2.45444 277.644 1.85422 278.118 1.3781 278.705C0.893654 279.297 0.549871 279.992 0.372623 280.736C0.195375 281.481 0.18928 282.256 0.354793 283.003L4.80619 303.469C5.05239 304.615 5.68476 305.642 6.59751 306.378C7.51026 307.114 8.64802 307.514 9.8204 307.511H255.415C256.587 307.514 257.725 307.114 258.637 306.378C259.55 305.642 260.183 304.615 260.429 303.469L264.88 283.003C265.046 282.256 265.04 281.481 264.862 280.736C264.685 279.992 264.341 279.297 263.857 278.705V278.705ZM183.527 100.752L204.658 111.343L213.766 179.597H202.51L188.49 146.903C188.098 145.978 187.443 145.189 186.606 144.634C185.769 144.079 184.787 143.782 183.783 143.782H175.238C180.129 129.931 182.923 115.428 183.527 100.752V100.752ZM132.618 12.5935C142.902 22.3661 173.55 54.8561 173.55 92.6162C173.938 112.597 169.719 132.398 161.219 150.484C156.768 131.4 145.818 118.199 132.618 118.199C119.417 118.199 108.467 131.4 104.016 150.484C95.5159 132.398 91.2965 112.597 91.6851 92.6162C91.6851 54.9073 122.333 22.4172 132.618 12.5935V12.5935ZM132.618 208.506C126.119 202.315 112.151 186.863 112.151 169.364C112.151 145.265 122.947 128.432 132.618 128.432C142.288 128.432 153.084 145.265 153.084 169.364C153.084 186.863 139.116 202.315 132.618 208.506ZM183.783 205.18V256.346H81.452V205.18H115.886C119.888 210.373 124.415 215.14 129.394 219.404C130.31 220.133 131.447 220.53 132.618 220.53C133.788 220.53 134.925 220.133 135.841 219.404C140.821 215.14 145.347 210.373 149.349 205.18H183.783ZM60.5765 111.343L81.7079 100.752C82.3119 115.428 85.1056 129.931 89.9967 143.782H81.452C80.4477 143.782 79.4658 144.079 78.6288 144.634C77.7917 145.189 77.1365 145.978 76.7448 146.903L62.7255 179.597H51.4691L60.5765 111.343ZM20.0535 143.782H45.9432L40.5708 184.049C40.476 184.771 40.5364 185.505 40.7482 186.203C40.96 186.9 41.3182 187.543 41.7988 188.091C42.2742 188.642 42.8635 189.083 43.5261 189.383C44.1888 189.683 44.9087 189.836 45.6362 189.831H66.1024C67.1067 189.83 68.0886 189.533 68.9257 188.978C69.7627 188.423 70.4179 187.634 70.8096 186.709L84.829 154.015H94.2946C96.4728 158.442 99.0593 162.655 102.021 166.601C101.969 167.522 101.918 168.443 101.918 169.364C102.127 178.364 104.609 187.164 109.133 194.947H76.3355C74.9785 194.947 73.6771 195.486 72.7176 196.446C71.758 197.405 71.219 198.707 71.219 200.064V261.462C71.219 262.819 71.758 264.121 72.7176 265.08C73.6771 266.04 74.9785 266.579 76.3355 266.579H188.9C190.257 266.579 191.558 266.04 192.517 265.08C193.477 264.121 194.016 262.819 194.016 261.462V200.064C194.016 198.707 193.477 197.405 192.517 196.446C191.558 195.486 190.257 194.947 188.9 194.947H156.102C160.626 187.164 163.108 178.364 163.317 169.364C163.317 168.443 163.266 167.522 163.214 166.601C166.176 162.655 168.762 158.442 170.94 154.015H180.406L194.425 186.709C194.817 187.634 195.472 188.423 196.309 188.978C197.146 189.533 198.128 189.83 199.133 189.831H219.599C220.326 189.836 221.046 189.683 221.709 189.383C222.371 189.083 222.961 188.642 223.436 188.091C223.917 187.543 224.275 186.9 224.487 186.203C224.699 185.505 224.759 184.771 224.664 184.049L219.292 143.782H245.182V276.812H147.967C146.61 276.812 145.309 277.351 144.349 278.31C143.39 279.27 142.851 280.571 142.851 281.928H122.384C122.384 280.571 121.845 279.27 120.886 278.31C119.926 277.351 118.625 276.812 117.268 276.812H20.0535V143.782ZM251.321 297.278H13.9136L11.7135 287.045H112.151C112.151 288.402 112.69 289.703 113.65 290.663C114.609 291.622 115.911 292.162 117.268 292.162H147.967C149.324 292.162 150.626 291.622 151.585 290.663C152.545 289.703 153.084 288.402 153.084 287.045H253.521L251.321 297.278Z" fill="black"/>
<path d="M204.249 215.413H234.948V225.646H204.249V215.413Z" fill="black"/>
<path d="M209.366 266.579H229.832C231.189 266.579 232.49 266.04 233.45 265.08C234.409 264.121 234.948 262.819 234.948 261.462V240.996C234.948 239.639 234.409 238.338 233.45 237.378C232.49 236.419 231.189 235.88 229.832 235.88H209.366C208.009 235.88 206.707 236.419 205.748 237.378C204.788 238.338 204.249 239.639 204.249 240.996V261.462C204.249 262.819 204.788 264.121 205.748 265.08C206.707 266.04 208.009 266.579 209.366 266.579ZM214.482 246.113H224.715V256.346H214.482V246.113Z" fill="black"/>
<path d="M30.2866 215.413H60.9858V225.646H30.2866V215.413Z" fill="black"/>
<path d="M55.8693 235.88H35.4031C34.0461 235.88 32.7447 236.419 31.7852 237.378C30.8256 238.338 30.2866 239.639 30.2866 240.996V261.462C30.2866 262.819 30.8256 264.121 31.7852 265.08C32.7447 266.04 34.0461 266.579 35.4031 266.579H55.8693C57.2263 266.579 58.5277 266.04 59.4872 265.08C60.4468 264.121 60.9858 262.819 60.9858 261.462V240.996C60.9858 239.639 60.4468 238.338 59.4872 237.378C58.5277 236.419 57.2263 235.88 55.8693 235.88ZM50.7527 256.346H40.5197V246.113H50.7527V256.346Z" fill="black"/>
</svg>
