<svg height="512" viewBox="0 0 64 64" width="512" xmlns="http://www.w3.org/2000/svg"><g id="hosting"><path d="m53 29h-42a2 2 0 0 0 -2 2v28h46v-28a2 2 0 0 0 -2-2z" fill="#57a4ff"/><path d="m41 20a27.146 27.146 0 0 1 -2.15 11 15.083 15.083 0 0 1 -1.88 3.17c-.22-4.58-2.37-8.17-4.97-8.17s-4.75 3.59-4.97 8.17a15.083 15.083 0 0 1 -1.88-3.17 27.146 27.146 0 0 1 -2.15-11c0-9.39 9-17 9-17s9 7.61 9 17z" fill="#ff3051"/><path d="m55 31v28h-4v-28a2.006 2.006 0 0 0 -2-2h4a2.006 2.006 0 0 1 2 2z" fill="#2488ff"/><path d="m56.88 57-.88 4h-48l-.88-4h1.88 20v1h6v-1h20z" fill="#e0e0e2"/><path d="m56.88 57-.88 4h-4l.88-4z" fill="#c6c5ca"/><circle cx="32" cy="15" fill="#57a4ff" r="3"/><path d="m47 49h4v4h-4z" fill="#ffde55"/><path d="m47.8 29 1.2 9h-4l-3-7h-3.15a27.146 27.146 0 0 0 2.15-11l6 3z" fill="#ffde55"/><path d="m21 41h22v12h-22z" fill="#46f8ff"/><path d="m39 41h4v12h-4z" fill="#00e7f0"/><path d="m36.97 34.17c.02.27.03.55.03.83a10.544 10.544 0 0 1 -2.23 6 17.06 17.06 0 0 1 -2.77 3 17.06 17.06 0 0 1 -2.77-3 10.544 10.544 0 0 1 -2.23-6c0-.28.01-.56.03-.83.22-4.58 2.37-8.17 4.97-8.17s4.75 3.59 4.97 8.17z" fill="#ff7956"/><path d="m25.15 31h-3.15l-3 7h-4l1.2-9 .8-6 6-3a27.146 27.146 0 0 0 2.15 11z" fill="#ffde55"/><path d="m13 49h4v4h-4z" fill="#ffde55"/><path d="m32 3a26.26 26.26 0 0 0 -2 1.95c2.64 2.84 7 8.52 7 15.05a29.033 29.033 0 0 1 -1.33 8.89 13.063 13.063 0 0 1 1.3 5.28 15.083 15.083 0 0 0 1.88-3.17 27.146 27.146 0 0 0 2.15-11c0-9.39-9-17-9-17z" fill="#cd2a00"/><path d="m49 38h-4l-2-15-2.07-1.03c.05-.64.07-1.3.07-1.97l6 3z" fill="#ffcd00"/><path d="m37 35c0 4.97-5 9-5 9a13.032 13.032 0 0 1 -1-.93c1.46-1.46 4-4.53 4-8.07 0-.28-.01-.56-.03-.83-.19-3.98-1.84-7.21-3.97-7.99a2.852 2.852 0 0 1 1-.18c2.6 0 4.75 3.59 4.97 8.17.02.27.03.55.03.83z" fill="#ff5023"/><path d="m32 19a4 4 0 1 0 -4-4 4 4 0 0 0 4 4zm0-6a2 2 0 1 1 -2 2 2 2 0 0 1 2-2z"/><path d="m31 29h2v2h-2z"/><path d="m31 33h2v7h-2z"/><path d="m57.65 56.37a1 1 0 0 0 -.77-.37h-.88v-27a1 1 0 0 0 -1-1h-6.32l-.69-5.13a.982.982 0 0 0 -.54-.76l-5.49-2.75c-.37-9.43-8.94-16.81-9.31-17.12a1 1 0 0 0 -1.3 0c-.37.31-8.94 7.69-9.31 17.12l-5.49 2.75a.982.982 0 0 0 -.54.76l-.69 5.13h-6.32a1 1 0 0 0 -1 1v27h-.88a1 1 0 0 0 -.77.37.989.989 0 0 0 -.2.84l.87 4a1 1 0 0 0 .98.79h48a1 1 0 0 0 .98-.79l.87-4a.989.989 0 0 0 -.2-.84zm-15.7-34.78 4.13 2.07 1.78 13.34h-2.2l-2.74-6.39a1 1 0 0 0 -.92-.61h-1.67a28.815 28.815 0 0 0 1.62-8.41zm-9.95-17.23c2.01 1.91 8 8.26 8 15.64a25.428 25.428 0 0 1 -2.41 11.31c-.87-3.73-3.01-6.31-5.59-6.31s-4.72 2.58-5.59 6.31a25.428 25.428 0 0 1 -2.41-11.31c0-7.37 5.99-13.72 8-15.64zm0 38.29c-1.27-1.21-4-4.23-4-7.65 0-4.71 2.11-8 4-8s4 3.29 4 8c0 3.42-2.73 6.44-4 7.65zm10-.65v10h-20v-10h6.73a18.636 18.636 0 0 0 2.64 2.78 1.012 1.012 0 0 0 1.26 0 18.636 18.636 0 0 0 2.64-2.78zm-24.08-18.34 4.13-2.07a28.815 28.815 0 0 0 1.62 8.41h-1.67a1 1 0 0 0 -.92.61l-2.74 6.39h-2.2zm-7.92 6.34h5.06l-1.05 7.87a1 1 0 0 0 .24.79.981.981 0 0 0 .75.34h4a1 1 0 0 0 .92-.61l2.74-6.39h1.85a15.5 15.5 0 0 0 1.51 2.46c-.01.18-.02.36-.02.54a10.431 10.431 0 0 0 1.41 5h-6.41a1 1 0 0 0 -1 1v12a1 1 0 0 0 1 1h22a1 1 0 0 0 1-1v-12a1 1 0 0 0 -1-1h-6.41a10.431 10.431 0 0 0 1.41-5c0-.18-.01-.36-.02-.54a15.5 15.5 0 0 0 1.51-2.46h1.85l2.74 6.39a1 1 0 0 0 .92.61h4a.981.981 0 0 0 .75-.34 1 1 0 0 0 .24-.79l-1.05-7.87h5.06v26h-19a1 1 0 0 0 -1 1h-4a1 1 0 0 0 -1-1h-19zm45.2 30h-46.4l-.43-2h19.63a1 1 0 0 0 1 1h6a1 1 0 0 0 1-1h19.63z"/><path d="m46 44h6v2h-6z"/><path d="m47 54h4a1 1 0 0 0 1-1v-4a1 1 0 0 0 -1-1h-4a1 1 0 0 0 -1 1v4a1 1 0 0 0 1 1zm1-4h2v2h-2z"/><path d="m12 44h6v2h-6z"/><path d="m17 48h-4a1 1 0 0 0 -1 1v4a1 1 0 0 0 1 1h4a1 1 0 0 0 1-1v-4a1 1 0 0 0 -1-1zm-1 4h-2v-2h2z"/><path d="m44 8h2v-2h2v-2h-2v-2h-2v2h-2v2h2z"/><path d="m52 14h2v-2h2v-2h-2v-2h-2v2h-2v2h2z"/><path d="m18 8h2v-2h2v-2h-2v-2h-2v2h-2v2h2z"/><path d="m10 14h2v-2h2v-2h-2v-2h-2v2h-2v2h2z"/></g></svg>