<svg width="264" height="306" viewBox="0 0 264 306" fill="none" xmlns="http://www.w3.org/2000/svg">
<path d="M239.055 137.7H24.8544C22.1492 137.7 19.5548 138.775 17.6419 140.688C15.729 142.601 14.6544 145.195 14.6544 147.9V290.701H249.255V147.9C249.255 145.195 248.18 142.601 246.267 140.688C244.354 138.775 241.76 137.7 239.055 137.7Z" fill="#57A4FF"/>
<path d="M177.855 91.8004C178.142 111.06 174.407 130.167 166.89 147.9C164.366 153.661 161.146 159.091 157.302 164.067C156.18 140.709 145.215 122.4 131.954 122.4C118.694 122.4 107.729 140.709 106.607 164.067C102.763 159.091 99.5426 153.661 97.0195 147.9C89.5018 130.167 85.7672 111.06 86.0545 91.8004C86.0545 43.9114 131.954 5.10034 131.954 5.10034C131.954 5.10034 177.855 43.9114 177.855 91.8004Z" fill="#FF3051"/>
<path d="M249.255 147.9V290.701H228.855V147.9C228.846 145.198 227.769 142.608 225.858 140.697C223.947 138.786 221.357 137.708 218.655 137.7H239.055C241.757 137.708 244.347 138.786 246.258 140.697C248.169 142.608 249.246 145.198 249.255 147.9Z" fill="#2488FF"/>
<path d="M258.843 280.501L254.355 300.901H9.55438L5.06638 280.501H14.6544H116.654V285.601H147.254V280.501H249.255H258.843Z" fill="#E0E0E2"/>
<path d="M258.843 280.501L254.355 300.901H233.955L238.443 280.501H258.843Z" fill="#C6C5CA"/>
<path d="M131.954 81.6004C140.404 81.6004 147.254 74.7503 147.254 66.3004C147.254 57.8504 140.404 51.0004 131.954 51.0004C123.505 51.0004 116.654 57.8504 116.654 66.3004C116.654 74.7503 123.505 81.6004 131.954 81.6004Z" fill="#57A4FF"/>
<path d="M208.455 239.7H228.855V260.1H208.455V239.7Z" fill="#FFDE55"/>
<path d="M212.535 137.7L218.655 183.6H198.255L182.954 147.9H166.889C174.407 130.167 178.142 111.06 177.854 91.8004L208.455 107.1L212.535 137.7Z" fill="#FFDE55"/>
<path d="M75.8544 198.9H188.055V260.101H75.8544V198.9Z" fill="#46F8FF"/>
<path d="M167.654 198.9H188.055V260.101H167.654V198.9Z" fill="#00E7F0"/>
<path d="M157.302 164.067C157.404 165.444 157.454 166.872 157.454 168.3C156.926 179.433 152.952 190.125 146.081 198.9C142.002 204.548 137.259 209.684 131.954 214.2C126.65 209.684 121.907 204.548 117.827 198.9C110.957 190.125 106.983 179.433 106.454 168.3C106.454 166.872 106.505 165.444 106.607 164.067C107.729 140.709 118.694 122.4 131.954 122.4C145.214 122.4 156.18 140.709 157.302 164.067Z" fill="#FF7956"/>
<path d="M97.0195 147.9H80.9544L65.6544 183.6H45.2544L51.3744 137.7L55.4544 107.1L86.0545 91.8004C85.7672 111.06 89.5018 130.167 97.0195 147.9Z" fill="#FFDE55"/>
<path d="M35.0544 239.7H55.4544V260.1H35.0544V239.7Z" fill="#FFDE55"/>
<path d="M131.954 5.10034C128.38 8.23204 124.976 11.5517 121.754 15.0453C135.218 29.5294 157.454 58.4974 157.454 91.8004C157.561 107.174 155.273 122.47 150.671 137.139C154.746 145.551 157.005 154.726 157.301 164.067C161.146 159.091 164.366 153.661 166.889 147.9C174.407 130.167 178.142 111.06 177.854 91.8004C177.854 43.9114 131.954 5.10034 131.954 5.10034Z" fill="#CD2A00"/>
<path d="M218.655 183.6H198.255L188.055 107.1L177.497 101.847C177.752 98.5834 177.854 95.2174 177.854 91.8004L208.455 107.1L218.655 183.6Z" fill="#FFCD00"/>
<path d="M157.454 168.3C157.454 193.647 131.954 214.2 131.954 214.2C130.173 212.71 128.47 211.127 126.854 209.457C134.3 202.011 147.254 186.354 147.254 168.3C147.254 166.872 147.203 165.444 147.101 164.067C146.132 143.769 137.717 127.296 126.854 123.318C128.486 122.71 130.213 122.399 131.954 122.4C145.214 122.4 156.179 140.709 157.301 164.067C157.403 165.444 157.454 166.872 157.454 168.3Z" fill="#FF5023"/>
<path d="M131.954 86.7004C135.989 86.7004 139.933 85.504 143.288 83.2624C146.643 81.0208 149.258 77.8347 150.802 74.1071C152.346 70.3795 152.75 66.2778 151.962 62.3205C151.175 58.3633 149.232 54.7284 146.379 51.8754C143.526 49.0224 139.892 47.0795 135.934 46.2923C131.977 45.5052 127.875 45.9092 124.148 47.4532C120.42 48.9973 117.234 51.612 114.992 54.9667C112.751 58.3215 111.554 62.2656 111.554 66.3004C111.554 71.7108 113.704 76.8996 117.529 80.7254C121.355 84.5511 126.544 86.7004 131.954 86.7004ZM131.954 56.1004C133.972 56.1004 135.944 56.6986 137.621 57.8194C139.299 58.9402 140.606 60.5332 141.378 62.397C142.15 64.2608 142.352 66.3117 141.958 68.2903C141.565 70.2689 140.593 72.0864 139.167 73.5129C137.74 74.9394 135.923 75.9108 133.944 76.3044C131.966 76.698 129.915 76.496 128.051 75.724C126.187 74.9519 124.594 73.6446 123.473 71.9672C122.353 70.2898 121.754 68.3178 121.754 66.3004C121.754 63.5952 122.829 61.0008 124.742 59.0879C126.655 57.175 129.249 56.1004 131.954 56.1004Z" fill="black"/>
<path d="M126.854 137.7H137.054V147.9H126.854V137.7Z" fill="black"/>
<path d="M126.854 158.1H137.054V193.8H126.854V158.1Z" fill="black"/>
<path d="M262.77 277.288C262.295 276.702 261.697 276.23 261.018 275.904C260.339 275.577 259.596 275.405 258.843 275.401H254.355V137.7C254.355 136.348 253.817 135.051 252.861 134.094C251.904 133.138 250.607 132.6 249.255 132.6H217.023L213.504 106.437C213.402 105.614 213.097 104.828 212.616 104.152C212.135 103.475 211.494 102.929 210.75 102.561L182.751 88.5364C180.863 40.4434 137.156 2.80534 135.269 1.22434C134.346 0.434196 133.17 0 131.954 0C130.739 0 129.563 0.434196 128.639 1.22434C126.752 2.80534 83.0454 40.4434 81.1584 88.5364L53.1594 102.561C52.4151 102.929 51.7738 103.475 51.2931 104.152C50.8124 104.828 50.5074 105.614 50.4054 106.437L46.8864 132.6H14.6544C13.3018 132.6 12.0046 133.138 11.0482 134.094C10.0917 135.051 9.55439 136.348 9.55439 137.7V275.401H5.06639C4.31309 275.405 3.57025 275.577 2.89125 275.904C2.21225 276.23 1.61396 276.702 1.13939 277.288C0.656508 277.878 0.313837 278.57 0.137162 279.312C-0.0395129 280.054 -0.0455883 280.827 0.11939 281.572L4.55639 301.972C4.8018 303.114 5.43213 304.138 6.34193 304.871C7.25173 305.604 8.3858 306.003 9.55439 306.001H254.355C255.523 306.003 256.657 305.604 257.567 304.871C258.477 304.138 259.107 303.114 259.353 301.972L263.79 281.572C263.955 280.827 263.948 280.054 263.772 279.312C263.595 278.57 263.252 277.878 262.77 277.288ZM182.7 99.9094L203.763 110.466L212.841 178.5H201.621L187.646 145.911C187.256 144.99 186.603 144.203 185.769 143.65C184.934 143.097 183.956 142.801 182.954 142.8H174.438C179.313 128.995 182.097 114.538 182.7 99.9094ZM131.954 12.0363C142.205 21.7773 172.755 54.1624 172.755 91.8004C173.142 111.716 168.936 131.454 160.463 149.481C156.026 130.458 145.112 117.3 131.954 117.3C118.796 117.3 107.882 130.458 103.445 149.481C94.9729 131.454 90.7671 111.716 91.1544 91.8004C91.1544 54.2134 121.703 21.8284 131.954 12.0363ZM131.954 207.315C125.477 201.144 111.554 185.742 111.554 168.3C111.554 144.279 122.315 127.5 131.954 127.5C141.593 127.5 152.354 144.279 152.354 168.3C152.354 185.742 138.431 201.144 131.954 207.315ZM182.954 204V255H80.9544V204H115.277C119.266 209.177 123.778 213.928 128.741 218.178C129.655 218.905 130.787 219.301 131.954 219.301C133.122 219.301 134.254 218.905 135.167 218.178C140.131 213.928 144.643 209.177 148.631 204H182.954ZM60.1464 110.466L81.2094 99.9094C81.8115 114.538 84.5962 128.995 89.4714 142.8H80.9544C79.9534 142.801 78.9746 143.097 78.1403 143.65C77.3059 144.203 76.6529 144.99 76.2624 145.911L62.2884 178.5H51.0684L60.1464 110.466ZM19.7544 142.8H45.5604L40.2054 182.937C40.1108 183.657 40.1711 184.389 40.3822 185.084C40.5933 185.779 40.9503 186.421 41.4294 186.966C41.9032 187.515 42.4907 187.955 43.1512 188.254C43.8116 188.554 44.5293 188.706 45.2544 188.7H65.6544C66.6555 188.7 67.6342 188.404 68.4686 187.851C69.3029 187.298 69.956 186.511 70.3464 185.589L84.3204 153H93.7554C95.9266 157.413 98.5048 161.613 101.456 165.546C101.405 166.464 101.354 167.382 101.354 168.3C101.563 177.271 104.036 186.043 108.545 193.8H75.8544C74.5018 193.8 73.2046 194.338 72.2482 195.294C71.2917 196.251 70.7544 197.548 70.7544 198.9V260.1C70.7544 261.453 71.2917 262.75 72.2482 263.707C73.2046 264.663 74.5018 265.201 75.8544 265.201H188.055C189.407 265.201 190.704 264.663 191.661 263.707C192.617 262.75 193.155 261.453 193.155 260.1V198.9C193.155 197.548 192.617 196.251 191.661 195.294C190.704 194.338 189.407 193.8 188.055 193.8H155.363C159.873 186.043 162.346 177.271 162.554 168.3C162.554 167.382 162.503 166.464 162.452 165.546C165.404 161.613 167.982 157.413 170.154 153H179.589L193.563 185.589C193.953 186.511 194.606 187.298 195.44 187.851C196.275 188.404 197.253 188.7 198.255 188.7H218.655C219.38 188.706 220.097 188.554 220.758 188.254C221.418 187.955 222.006 187.515 222.48 186.966C222.959 186.421 223.316 185.779 223.527 185.084C223.738 184.389 223.798 183.657 223.704 182.937L218.349 142.8H244.155V275.401H147.254C145.902 275.401 144.605 275.938 143.648 276.894C142.692 277.851 142.154 279.148 142.154 280.501H121.754C121.754 279.148 121.217 277.851 120.261 276.894C119.304 275.938 118.007 275.401 116.654 275.401H19.7544V142.8ZM250.275 295.801H13.6344L11.4414 285.601H111.554C111.554 286.953 112.092 288.25 113.048 289.207C114.005 290.163 115.302 290.701 116.654 290.701H147.254C148.607 290.701 149.904 290.163 150.861 289.207C151.817 288.25 152.354 286.953 152.354 285.601H252.468L250.275 295.801Z" fill="#23036A"/>
<path d="M203.355 214.2H233.955V224.4H203.355V214.2Z" fill="black"/>
<path d="M208.455 265.2H228.855C230.207 265.2 231.504 264.663 232.461 263.707C233.417 262.75 233.955 261.453 233.955 260.1V239.7C233.955 238.348 233.417 237.051 232.461 236.094C231.504 235.138 230.207 234.6 228.855 234.6H208.455C207.102 234.6 205.805 235.138 204.848 236.094C203.892 237.051 203.355 238.348 203.355 239.7V260.1C203.355 261.453 203.892 262.75 204.848 263.707C205.805 264.663 207.102 265.2 208.455 265.2ZM213.555 244.8H223.755V255H213.555V244.8Z" fill="black"/>
<path d="M29.9544 214.2H60.5544V224.4H29.9544V214.2Z" fill="black"/>
<path d="M55.4544 234.6H35.0544C33.7018 234.6 32.4046 235.138 31.4482 236.094C30.4917 237.051 29.9544 238.348 29.9544 239.7V260.1C29.9544 261.453 30.4917 262.75 31.4482 263.707C32.4046 264.663 33.7018 265.2 35.0544 265.2H55.4544C56.807 265.2 58.1042 264.663 59.0607 263.707C60.0171 262.75 60.5544 261.453 60.5544 260.1V239.7C60.5544 238.348 60.0171 237.051 59.0607 236.094C58.1042 235.138 56.807 234.6 55.4544 234.6ZM50.3544 255H40.1544V244.8H50.3544V255Z" fill="black"/>
<path d="M193.155 30.6004H203.355V20.4003H213.555V10.2003H203.355V0.000335693H193.155V10.2003H182.954V20.4003H193.155V30.6004Z" fill="#FFCD00"/>
<path d="M233.955 61.2004H244.155V51.0004H254.355V40.8004H244.155V30.6003H233.955V40.8004H223.755V51.0004H233.955V61.2004Z" fill="#FFCD00"/>
<path d="M60.5544 30.6004H70.7544V20.4003H80.9545V10.2003H70.7544V0.000335693H60.5544V10.2003H50.3544V20.4003H60.5544V30.6004Z" fill="#FFCD00"/>
<path d="M19.7544 61.2004H29.9544V51.0004H40.1544V40.8004H29.9544V30.6003H19.7544V40.8004H9.55438V51.0004H19.7544V61.2004Z" fill="#FFCD00"/>
</svg>
